<?xml version="1.0" encoding="UTF-8" standalone="no"?>
<svg xmlns:dc="http://purl.org/dc/elements/1.1/" xmlns:cc="http://creativecommons.org/ns#" xmlns:rdf="http://www.w3.org/1999/02/22-rdf-syntax-ns#" xmlns:svg="http://www.w3.org/2000/svg" xmlns="http://www.w3.org/2000/svg" xmlns:xlink="http://www.w3.org/1999/xlink" xmlns:sodipodi="http://sodipodi.sourceforge.net/DTD/sodipodi-0.dtd" xmlns:inkscape="http://www.inkscape.org/namespaces/inkscape" width="125.2865" height="70.583061" viewBox="0 0 125.2865 70.583061" fill="none" version="1.1" id="svg6" sodipodi:docname="favicon.svg" inkscape:version="1.0.1 (3bc2e813f5, 2020-09-07)">
  <metadata id="metadata12">
    <rdf:RDF>
      <cc:Work rdf:about="">
        <dc:format>image/svg+xml</dc:format>
        <dc:type rdf:resource="http://purl.org/dc/dcmitype/StillImage" />
        <dc:title></dc:title>
      </cc:Work>
    </rdf:RDF>
  </metadata>
  <defs id="defs10">
    <linearGradient inkscape:collect="always" id="linearGradient873">
      <stop style="stop-color:#33ff77;stop-opacity:1;" offset="0" id="stop869" />
      <stop style="stop-color:#00cc44;stop-opacity:1" offset="1" id="stop871" />
    </linearGradient>
    <radialGradient inkscape:collect="always" xlink:href="#linearGradient873" id="radialGradient875" cx="95.972511" cy="99.7379" fx="95.972511" fy="99.7379" r="62.643253" gradientTransform="matrix(1,0,0,0.56337327,-33.329256,-20.898131)" gradientUnits="userSpaceOnUse" />
  </defs>
  <sodipodi:namedview pagecolor="#00000000" bordercolor="#666666" borderopacity="1" objecttolerance="10" gridtolerance="10" guidetolerance="10" inkscape:pageopacity="0" inkscape:pageshadow="2" inkscape:window-width="2560" inkscape:window-height="1369" id="namedview8" showgrid="false" inkscape:zoom="5.25" inkscape:cx="62.643251" inkscape:cy="35.291534" inkscape:window-x="1912" inkscape:window-y="-8" inkscape:window-maximized="1" inkscape:current-layer="svg6" inkscape:document-rotation="0" fit-margin-top="0" fit-margin-left="0" fit-margin-right="0" fit-margin-bottom="0" />
  <path d="m 62.721523,10.083393 c 24.801668,0 42.091207,15.18552 49.614027,23.373153 -7.31449,9.261128 -24.604019,27.044078 -49.614027,27.044078 -23.07355,0 -41.396772,-17.82781 -49.477752,-27.260791 7.793946,-8.303738 25.146129,-23.15644 49.477752,-23.15644 z M 62.721523,0 C 23.209398,0 0,33.028015 0,33.028015 c 0,0 25.240025,37.555049 62.721523,37.555049 40.368157,0 62.564977,-37.555049 62.564977,-37.555049 C 125.2865,33.028015 102.88697,0 62.721523,0 Z m -0.07828,25.208413 c 5.757548,0 10.441008,4.522415 10.441008,10.083393 0,5.560568 -4.68346,10.083798 -10.441008,10.083798 -5.757974,0 -10.440587,-4.52323 -10.440587,-10.083798 0,-5.560978 4.682613,-10.083393 10.440587,-10.083393 z m 0,-10.083392 c -11.531562,0 -20.881037,9.034769 -20.881037,20.166785 0,11.137448 9.349475,20.166238 20.881037,20.166238 11.531998,0 20.880618,-9.02879 20.880618,-20.166238 0,-11.132016 -9.34862,-20.166785 -20.880618,-20.166785 z" fill="#000000" id="path4" style="fill:url(#radialGradient875);fill-opacity:1;stroke:none;stroke-width:1;stroke-miterlimit:4;stroke-dasharray:none;stroke-opacity:1" />
</svg>
