<?xml version="1.0" encoding="UTF-8" standalone="no"?>
<svg xmlns:dc="http://purl.org/dc/elements/1.1/" xmlns:cc="http://creativecommons.org/ns#" xmlns:rdf="http://www.w3.org/1999/02/22-rdf-syntax-ns#" xmlns:svg="http://www.w3.org/2000/svg" xmlns="http://www.w3.org/2000/svg" xmlns:xlink="http://www.w3.org/1999/xlink" xmlns:sodipodi="http://sodipodi.sourceforge.net/DTD/sodipodi-0.dtd" xmlns:inkscape="http://www.inkscape.org/namespaces/inkscape" width="192" height="192" viewBox="0 0 192 192" fill="none" version="1.1" id="svg6" sodipodi:docname="Trash.svg" inkscape:version="1.0.1 (3bc2e813f5, 2020-09-07)">
  <metadata id="metadata12">
    <rdf:RDF>
      <cc:Work rdf:about="">
        <dc:format>image/svg+xml</dc:format>
        <dc:type rdf:resource="http://purl.org/dc/dcmitype/StillImage" />
      </cc:Work>
    </rdf:RDF>
  </metadata>
  <defs id="defs10">
    <linearGradient inkscape:collect="always" id="linearGradient881">
      <stop style="stop-color:#00cc45;stop-opacity:1;" offset="0" id="stop877" />
      <stop style="stop-color:#33ff78;stop-opacity:1" offset="1" id="stop879" />
    </linearGradient>
    <linearGradient inkscape:collect="always" id="linearGradient873">
      <stop style="stop-color:#33ff77;stop-opacity:1;" offset="0" id="stop869" />
      <stop style="stop-color:#00cc44;stop-opacity:1" offset="1" id="stop871" />
    </linearGradient>
    <radialGradient inkscape:collect="always" xlink:href="#linearGradient873" id="radialGradient875" cx="95.972508" cy="99.737896" fx="95.972508" fy="99.737896" r="62.643252" gradientTransform="matrix(1,0,0,0.56337327,0.027493,39.810335)" gradientUnits="userSpaceOnUse" />
    <radialGradient inkscape:collect="always" xlink:href="#linearGradient881" id="radialGradient883" cx="96" cy="100.09524" fx="96" fy="100.09524" r="80" gradientTransform="matrix(1,0,0,1.1488095,0,-18.990363)" gradientUnits="userSpaceOnUse" />
  </defs>
  <sodipodi:namedview pagecolor="#00000000" bordercolor="#666666" borderopacity="1" objecttolerance="10" gridtolerance="10" guidetolerance="10" inkscape:pageopacity="0" inkscape:pageshadow="2" inkscape:window-width="2560" inkscape:window-height="1369" id="namedview8" showgrid="false" inkscape:zoom="5.25" inkscape:cx="96" inkscape:cy="96" inkscape:window-x="1912" inkscape:window-y="-8" inkscape:window-maximized="1" inkscape:current-layer="svg6" />
  <path d="m 96.078272,70.791859 c 24.801668,0 42.091208,15.18552 49.614028,23.373153 -7.31449,9.261128 -24.60402,27.044078 -49.614028,27.044078 -23.07355,0 -41.396772,-17.82781 -49.477752,-27.260791 7.793946,-8.303738 25.146129,-23.15644 49.477752,-23.15644 z m 0,-10.083393 c -39.512125,0 -62.721523,33.028015 -62.721523,33.028015 0,0 25.240025,37.555049 62.721523,37.555049 40.368158,0 62.564978,-37.555049 62.564978,-37.555049 0,0 -22.39953,-33.028015 -62.564978,-33.028015 z m -0.07828,25.208413 c 5.757548,0 10.441008,4.522415 10.441008,10.083393 0,5.560568 -4.68346,10.083798 -10.441008,10.083798 -5.757974,0 -10.440587,-4.52323 -10.440587,-10.083798 0,-5.560978 4.682613,-10.083393 10.440587,-10.083393 z m 0,-10.083392 c -11.531562,0 -20.881037,9.034769 -20.881037,20.166785 0,11.137448 9.349475,20.166238 20.881037,20.166238 11.531998,0 20.880618,-9.02879 20.880618,-20.166238 0,-11.132016 -9.34862,-20.166785 -20.880618,-20.166785 z" fill="#000000" id="path4" style="fill:url(#radialGradient875);fill-opacity:1;stroke:none;stroke-width:1;stroke-miterlimit:4;stroke-dasharray:none;stroke-opacity:1" />
  <path d="M 169.52381,27.904762 144,187.90476 H 48 L 21.52381,27.904762 H 38.70019 L 61.552,171.90476 H 130.44 L 152.14895,27.904762 Z m -39.21181,-16 c -5.10476,0 0,0 -12.2861,-7.8095239 L 76.069333,4.2857143 C 61.688,11.904762 67.753143,11.714286 61.688,11.904762 H 16 v 16 h 160 v -16 z" fill="#000000" id="path2" sodipodi:nodetypes="cccccccccscccccccs" style="fill:url(#radialGradient883);fill-opacity:1;stroke:none;stroke-opacity:1" />
</svg>
